0
SECTION
2
HEADER
9
$ACADVER
1
AC1009
0
ENDSEC
0
SECTION
2
TABLES
0
TABLE
2
LAYER
70
3
0
LAYER
2
COLUMNS
70
0
62
7
6
CONTINUOUS
0
LAYER
2
BEAMS_X
70
0
62
1
6
CONTINUOUS
0
LAYER
2
BEAMS_Y
70
0
62
3
6
CONTINUOUS
0
ENDTAB
0
ENDSEC
0
SECTION
2
ENTITIES
0
LINE
8
COLUMNS
10
0.0
20
0.0
30
0.0
11
0.0
21
0.0
31
3.0
0
LINE
8
COLUMNS
10
6.0
20
0.0
30
0.0
11
6.0
21
0.0
31
3.0
0
LINE
8
COLUMNS
10
6.0
20
5.0
30
0.0
11
6.0
21
5.0
31
3.0
0
LINE
8
COLUMNS
10
0.0
20
5.0
30
0.0
11
0.0
21
5.0
31
3.0
0
LINE
8
BEAMS_X
10
0.0
20
0.0
30
3.0
11
6.0
21
0.0
31
3.0
0
LINE
8
BEAMS_X
10
0.0
20
5.0
30
3.0
11
6.0
21
5.0
31
3.0
0
LINE
8
BEAMS_Y
10
0.0
20
0.0
30
3.0
11
0.0
21
5.0
31
3.0
0
LINE
8
BEAMS_Y
10
6.0
20
0.0
30
3.0
11
6.0
21
5.0
31
3.0
0
ENDSEC
0
EOF
